<svg width="200" height="200" viewBox="0 0 200 200" fill="none" xmlns="http://www.w3.org/2000/svg">
<rect x="0.5" y="0.5" width="199" height="199" stroke="#F4C20B"/>
<path d="M55.3641 90.9162L49.7332 111.836H48.3084L53.9393 90.9162H55.3641ZM63.6698 90.9162L58.0388 111.836H56.614L62.245 90.9162H63.6698ZM72.3167 93.1686V91.7352H84.9863V93.1686H79.4492V109.208H77.8538V93.1686H72.3167ZM102.176 100.472C102.176 102.292 101.851 103.876 101.203 105.224C100.555 106.566 99.6617 107.607 98.5241 108.347C97.3922 109.08 96.0897 109.447 94.6165 109.447C93.1434 109.447 91.838 109.08 90.7005 108.347C89.5686 107.607 88.6785 106.566 88.03 105.224C87.3873 103.876 87.066 102.292 87.066 100.472C87.066 98.6516 87.3873 97.0704 88.03 95.7281C88.6785 94.3801 89.5714 93.3392 90.709 92.6055C91.8466 91.8661 93.1491 91.4963 94.6165 91.4963C96.0897 91.4963 97.3922 91.8661 98.5241 92.6055C99.6617 93.3392 100.555 94.3801 101.203 95.7281C101.851 97.0704 102.176 98.6516 102.176 100.472ZM100.623 100.472C100.623 98.9076 100.361 97.5681 99.838 96.4533C99.3147 95.3328 98.6009 94.4768 97.6965 93.8852C96.7921 93.2937 95.7655 92.9979 94.6165 92.9979C93.4733 92.9979 92.4495 93.2937 91.5451 93.8852C90.6408 94.4768 89.9241 95.3299 89.3951 96.4448C88.8718 97.5596 88.6102 98.9019 88.6102 100.472C88.6102 102.036 88.8718 103.375 89.3951 104.49C89.9184 105.605 90.6322 106.461 91.5366 107.058C92.441 107.65 93.4676 107.946 94.6165 107.946C95.7655 107.946 96.7921 107.65 97.6965 107.058C98.6066 106.467 99.3232 105.614 99.8465 104.499C100.37 103.378 100.629 102.036 100.623 100.472ZM111.153 109.208H106.034V91.7352H111.46C113.127 91.7352 114.552 92.0822 115.735 92.7761C116.924 93.47 117.834 94.4654 118.465 95.7622C119.096 97.059 119.412 98.6147 119.412 100.429C119.412 102.261 119.088 103.833 118.439 105.147C117.797 106.455 116.858 107.459 115.624 108.159C114.395 108.858 112.905 109.208 111.153 109.208ZM107.63 107.775H111.059C112.561 107.775 113.818 107.479 114.83 106.888C115.843 106.296 116.602 105.451 117.108 104.354C117.615 103.256 117.868 101.948 117.868 100.429C117.862 98.9218 117.612 97.625 117.117 96.5386C116.628 95.4522 115.9 94.619 114.933 94.0388C113.972 93.4586 112.783 93.1686 111.366 93.1686H107.63V107.775ZM137.604 100.472C137.604 102.292 137.28 103.876 136.631 105.224C135.983 106.566 135.09 107.607 133.952 108.347C132.82 109.08 131.518 109.447 130.045 109.447C128.571 109.447 127.266 109.08 126.129 108.347C124.997 107.607 124.107 106.566 123.458 105.224C122.815 103.876 122.494 102.292 122.494 100.472C122.494 98.6516 122.815 97.0704 123.458 95.7281C124.107 94.3801 125 93.3392 126.137 92.6055C127.275 91.8661 128.577 91.4963 130.045 91.4963C131.518 91.4963 132.82 91.8661 133.952 92.6055C135.09 93.3392 135.983 94.3801 136.631 95.7281C137.28 97.0704 137.604 98.6516 137.604 100.472ZM136.051 100.472C136.051 98.9076 135.789 97.5681 135.266 96.4533C134.743 95.3328 134.029 94.4768 133.125 93.8852C132.22 93.2937 131.194 92.9979 130.045 92.9979C128.901 92.9979 127.878 93.2937 126.973 93.8852C126.069 94.4768 125.352 95.3299 124.823 96.4448C124.3 97.5596 124.038 98.9019 124.038 100.472C124.038 102.036 124.3 103.375 124.823 104.49C125.346 105.605 126.06 106.461 126.965 107.058C127.869 107.65 128.896 107.946 130.045 107.946C131.194 107.946 132.22 107.65 133.125 107.058C134.035 106.467 134.751 105.614 135.275 104.499C135.798 103.378 136.057 102.036 136.051 100.472Z" fill="#F4C20B"/>
</svg>
